<svg width="21" height="20" viewBox="0 0 21 20" fill="none" xmlns="http://www.w3.org/2000/svg">
<path d="M15.1457 7.61627H6.81234C5.66174 7.61627 4.729 8.54901 4.729 9.69961V15.9496C4.729 17.1002 5.66174 18.0329 6.81234 18.0329H15.1457C16.2963 18.0329 17.229 17.1002 17.229 15.9496V9.69961C17.229 8.54901 16.2963 7.61627 15.1457 7.61627Z" stroke="#1E285F" stroke-width="2" stroke-linecap="round" stroke-linejoin="round"/>
<path d="M10.9792 1.36627C9.8741 1.36627 8.81429 1.80526 8.03289 2.58666C7.25149 3.36806 6.8125 4.42787 6.8125 5.53294V7.61627H15.1458V5.53294C15.1458 4.42787 14.7068 3.36806 13.9254 2.58666C13.144 1.80526 12.0842 1.36627 10.9792 1.36627V1.36627Z" stroke="#1E285F" stroke-width="2" stroke-linecap="round" stroke-linejoin="round"/>
</svg>
